<?xml version="1.0" encoding="UTF-8"?>
<svg version="1.1" xmlns="http://www.w3.org/2000/svg" width="720" height="460">
<path d="M0 0 C2.30865033 3.4629755 2.49918178 5.44856312 2.97607422 9.56201172 C3.05683638 10.25551161 3.13759853 10.9490115 3.22080803 11.66352654 C4.47305513 22.75753937 5.4047984 33.8871496 6.3828125 45.0078125 C6.60407812 47.50732099 6.82542359 50.0068224 7.04684448 52.50631714 C7.50778059 57.71870935 7.96629381 62.93130829 8.42333984 68.14404297 C8.89051865 73.46864168 9.36174713 78.79285159 9.83740234 84.11669922 C10.41583518 90.59264689 10.98821416 97.06910153 11.55605698 103.54598618 C11.77176305 105.99633028 11.98942809 108.44650283 12.2091713 110.89648819 C15.29228391 145.33982364 15.29228391 145.33982364 12.59736633 148.80194092 C9.92243751 150.80819503 7.93224545 151.13005388 4.63745117 150.67041016 C3.78127197 150.46206543 2.92509277 150.2537207 2.04296875 150.0390625 C0.62081055 149.70261719 0.62081055 149.70261719 -0.83007812 149.359375 C-2.30637695 148.99585938 -2.30637695 148.99585938 -3.8125 148.625 C-30.82323716 142.10948752 -57.45655027 145.57873356 -84 153 C-84.75410156 153.20963379 -85.50820313 153.41926758 -86.28515625 153.63525391 C-105.1356357 159.03357243 -123.57067179 167.65645493 -139.125 179.63671875 C-143.60933148 183.04667914 -143.60933148 183.04667914 -146.125 182.74609375 C-148 182 -148 182 -149 180 C-149.19568886 178.65639623 -149.34168367 177.30537007 -149.46142578 175.95288086 C-149.53911697 175.09577515 -149.61680817 174.23866943 -149.69685364 173.35559082 C-149.77884506 172.40164429 -149.86083649 171.44769775 -149.9453125 170.46484375 C-150.03596481 169.44362427 -150.12661713 168.42240479 -150.22001648 167.37023926 C-150.52659188 163.89307066 -150.82618064 160.41534328 -151.125 156.9375 C-151.22960541 155.73368683 -151.33421082 154.52987366 -151.44198608 153.2895813 C-153.60587953 128.35634017 -155.59925163 103.40899935 -157.57308197 78.46010208 C-157.81240779 75.43866413 -158.05274398 72.41730789 -158.29327393 69.39596558 C-158.67597026 64.58439567 -159.0551274 59.77255899 -159.43155861 54.960495 C-159.57195928 53.17104566 -159.71337324 51.38167551 -159.8558712 49.59239197 C-160.05249722 47.11967984 -160.24513748 44.64668763 -160.43676758 42.17358398 C-160.49437822 41.45956389 -160.55198887 40.7455438 -160.61134529 40.00988674 C-161.71468178 25.54364235 -161.71468178 25.54364235 -158 21 C-123.09101796 -8.50577086 -40.90738798 -26.50478683 0 0 Z " transform="translate(560,35)"/>
<path d="M0 0 C1.74496197 37.51668233 -9.86243609 77.74324635 -29 110 C-28.64921387 110.45101074 -28.29842773 110.90202148 -27.93701172 111.36669922 C-27.43959473 112.00623535 -26.94217773 112.64577148 -26.4296875 113.3046875 C-25.86983154 114.02446777 -25.30997559 114.74424805 -24.7331543 115.48583984 C-23.479276 117.09803969 -22.22553571 118.71034689 -20.97192383 120.32275391 C-17.13973876 125.25128087 -13.30309688 130.17627604 -9.46142578 135.09741211 C-7.71222765 137.34325155 -5.9709173 139.59503279 -4.23046875 141.84765625 C-2.20389298 144.46784509 -0.1482394 147.05737487 1.94921875 149.62109375 C2.38516357 150.16652832 2.8211084 150.71196289 3.27026367 151.27392578 C4.40858701 152.6981294 5.56299894 154.10943357 6.71875 155.51953125 C8 158 8 158 7.578125 160.5390625 C-5.97488076 181.6737002 -47.62244454 194.02952447 -70.6171875 199.109375 C-107.56351314 206.77537972 -147.70744145 203.93522916 -181.265625 185.80859375 C-185.34460421 183.11064036 -188.29385885 180.05921172 -191 176 C-191.4375 172.625 -191.4375 172.625 -191 169 C-188.45862841 165.84045695 -186.85377341 164.28459114 -183 163 C-174.05672805 162.03983277 -166.10286588 163.46715807 -157.4375 165.5 C-141.76895466 169.45555007 -141.76895466 169.45555007 -126.6484375 165.32421875 C-121.21590427 160.96016954 -119.21896773 155.76486481 -118 149 C-117.81745137 146.05117877 -117.96866133 143.15760139 -118.15234375 140.2109375 C-118.20164536 139.29533051 -118.25094696 138.37972351 -118.30174255 137.43637085 C-119.35647003 119.47728741 -121.03880056 101.54883169 -122.5625 83.625 C-123.1364932 76.86291316 -123.70761811 70.10059792 -124.27366447 63.33784103 C-124.49908433 60.65886799 -124.72859968 57.9802675 -124.95838928 55.30166626 C-125.09687416 53.65506513 -125.2351841 52.00844928 -125.37329102 50.36181641 C-125.4691172 49.26458504 -125.4691172 49.26458504 -125.56687927 48.14518738 C-125.9583222 43.41407988 -126.05347637 38.74754347 -126 34 C-125.1656543 33.93006836 -124.33130859 33.86013672 -123.47167969 33.78808594 C-99.03707454 31.70968324 -99.03707454 31.70968324 -75 27 C-74.09862305 26.7736084 -73.19724609 26.5472168 -72.26855469 26.31396484 C-50.91719121 20.81084887 -29.91459696 13.02273033 -10.82104492 1.90893555 C-4.44454593 -1.7081 -4.44454593 -1.7081 0 0 Z " transform="translate(704,33)"/>
<path d="M0 0 C0.75555679 -0.0033284 1.51111359 -0.0066568 2.28956604 -0.01008606 C3.88224685 -0.01513208 5.47493816 -0.01749511 7.06762695 -0.01733398 C9.49252869 -0.01952099 11.91697546 -0.03770247 14.34179688 -0.05664062 C15.89452971 -0.05957501 17.44726468 -0.06155951 19 -0.0625 C19.71892929 -0.06968552 20.43785858 -0.07687103 21.17857361 -0.08427429 C25.53050407 -0.06470318 29.18160556 0.14107104 33.06640625 2.16796875 C34.66331331 4.58139219 35.80148305 6.65062947 36.953125 9.26171875 C37.28833664 9.97581909 37.62354828 10.68991943 37.96891785 11.42565918 C38.67060372 12.92448654 39.36361238 14.4274041 40.04827881 15.93408203 C41.00704344 18.03772002 41.99166296 20.12618815 42.99072266 22.2109375 C44.97496167 26.35326738 46.92762159 30.51003754 48.87890625 34.66796875 C50.35707421 37.8103663 51.83668636 40.95208299 53.31640625 44.09375 C53.6973494 44.90294388 54.07829254 45.71213776 54.47077942 46.54585266 C57.38496052 52.73233602 60.31587732 58.91074782 63.25390625 65.0859375 C63.68305832 65.9880899 64.11221039 66.89024231 64.55436707 67.81973267 C66.24037878 71.36333051 67.9267328 74.90676289 69.61514282 78.44921875 C70.78345926 80.90058195 71.95041021 83.35259142 73.1171875 85.8046875 C73.45818481 86.5189238 73.79918213 87.2331601 74.1505127 87.96903992 C76.54184192 92.99814067 78.82555069 98.07013267 81.06640625 103.16796875 C81.39640625 103.16796875 81.72640625 103.16796875 82.06640625 103.16796875 C82.06196503 101.97859711 82.0575238 100.78922546 82.052948 99.56381226 C82.01239457 88.35199034 81.98241828 77.14018331 81.96278191 65.92830467 C81.95234728 60.16424883 81.93819381 54.40025222 81.91552734 48.63623047 C81.89378771 43.07304935 81.8818352 37.50992519 81.87665176 31.94670486 C81.87295804 29.82484668 81.86574515 27.7029916 81.85494614 25.58115768 C81.84041648 22.60791042 81.83842895 19.63489818 81.83935547 16.66162109 C81.83216492 15.78552185 81.82497437 14.90942261 81.81756592 14.0067749 C81.83334627 9.32313295 82.26173592 5.57369288 84.06640625 1.16796875 C92.28303842 -0.00326171 100.41677782 0.1439054 108.69140625 0.41796875 C109.77099609 0.44431396 110.85058594 0.47065918 111.96289062 0.49780273 C113.4875293 0.55883179 113.4875293 0.55883179 115.04296875 0.62109375 C115.96158691 0.65364258 116.88020508 0.68619141 117.82666016 0.71972656 C120.06640625 1.16796875 120.06640625 1.16796875 122.06640625 4.16796875 C122.25719837 6.63751823 122.3317386 8.99335192 122.31364441 11.46266174 C122.31605882 12.21110397 122.31847324 12.95954619 122.32096082 13.73066849 C122.32660947 16.24574524 122.317926 18.76056931 122.30932617 21.27563477 C122.31039876 23.07576568 122.31233709 24.87589625 122.31507874 26.67602539 C122.31993364 31.57048801 122.31226358 36.46485972 122.30212569 41.35931134 C122.2933567 46.47399118 122.29510241 51.58866806 122.29548645 56.70335388 C122.29454935 65.29240444 122.28585878 73.88141971 122.2722168 82.47045898 C122.2564858 92.41171042 122.25121884 102.3529232 122.25195235 112.29418617 C122.25256195 121.84470379 122.24746306 131.39520876 122.23916054 140.94572258 C122.23562296 145.01626624 122.23379661 149.08680542 122.23326683 153.15735054 C122.23226488 157.94663796 122.22618042 162.73589272 122.21610069 167.52516937 C122.21317123 169.28685494 122.21195122 171.04854426 122.21252823 172.81023216 C122.21301631 175.20694303 122.20738905 177.60356138 122.20011902 180.0002594 C122.20166762 180.7044309 122.20321622 181.40860239 122.20481175 182.13411242 C122.18058531 186.93961062 122.18058531 186.93961062 121.06640625 189.16796875 C106.54640625 189.16796875 92.02640625 189.16796875 77.06640625 189.16796875 C71.74139604 179.10961614 66.56469559 169.24394604 61.87890625 158.91796875 C60.76231413 156.48477809 59.64437941 154.05227662 58.5234375 151.62109375 C58.09854538 150.69876953 58.09854538 150.69876953 57.66506958 149.7578125 C54.55158961 143.01952788 51.31252256 136.34309549 48.06640625 129.66796875 C44.43599088 122.20208442 40.83946644 114.72646801 37.36328125 107.1875 C37.06321167 106.53711761 36.76314209 105.88673523 36.45397949 105.21664429 C35.0128714 102.08908607 33.57846955 98.95863587 32.15234375 95.82421875 C31.39050781 94.16326172 31.39050781 94.16326172 30.61328125 92.46875 C30.16823242 91.49075439 29.72318359 90.51275879 29.26464844 89.50512695 C28.16086603 87.05800969 28.16086603 87.05800969 26.06640625 85.16796875 C26.07084747 86.39714523 26.0752887 87.62632172 26.0798645 88.89274597 C26.12039612 100.4727836 26.15038373 112.05280684 26.17003059 123.63289928 C26.18047075 129.58643232 26.19463431 135.53990811 26.21728516 141.4934082 C26.23900508 147.23813248 26.25097313 152.98280169 26.25616074 158.72756386 C26.25985801 160.92002543 26.26707776 163.11248396 26.27786636 165.3049221 C26.29236982 168.3741649 26.29438465 171.44317966 26.29345703 174.51245117 C26.30064758 175.42019791 26.30783813 176.32794464 26.31524658 177.26319885 C26.31249725 178.10307343 26.30974792 178.942948 26.30691528 179.80827332 C26.30875887 180.53372439 26.31060246 181.25917547 26.31250191 182.00660992 C26.06640625 184.16796875 26.06640625 184.16796875 24.06640625 189.16796875 C11.52640625 189.16796875 -1.01359375 189.16796875 -13.93359375 189.16796875 C-15.40850139 186.21815347 -15.0744181 183.233996 -15.06730652 180.0002594 C-15.06957208 179.25337717 -15.07183763 178.50649493 -15.07417184 177.7369799 C-15.08052844 175.22120353 -15.07968142 172.7054808 -15.07885742 170.18969727 C-15.08184787 168.39133636 -15.08525013 166.59297611 -15.08903503 164.7946167 C-15.09789059 159.90005828 -15.10021379 155.00551732 -15.10085082 150.11095166 C-15.10179863 146.03022321 -15.10547543 141.94949885 -15.10902292 137.86877197 C-15.11717328 128.24446241 -15.11960661 118.62016222 -15.11889648 108.99584961 C-15.11829543 99.05519336 -15.12885141 89.11459134 -15.14464015 79.17394882 C-15.1576983 70.64993806 -15.16308111 62.12594506 -15.16244107 53.60192436 C-15.16218559 48.5062243 -15.16506441 43.41057241 -15.17561913 38.31488228 C-15.18527122 33.5239475 -15.18539923 28.73310722 -15.17810249 23.94216919 C-15.17705306 22.18090108 -15.17944064 20.41962719 -15.18546295 18.65836906 C-15.19313544 16.25968736 -15.18856984 13.8613359 -15.18083191 11.46266174 C-15.18597547 10.76072097 -15.19111904 10.05878019 -15.19641846 9.33556849 C-15.17045835 5.71035565 -15.00680483 4.27778537 -12.93359375 1.16796875 C-8.73928031 -0.16568922 -4.36348338 0.00673523 0 0 Z M82.06640625 104.16796875 C83.06640625 107.16796875 83.06640625 107.16796875 83.06640625 107.16796875 Z " transform="translate(22.93359375,270.83203125)"/>
<path d="M0 0 C1.03447266 0.928125 1.03447266 0.928125 2.08984375 1.875 C2.08984375 2.535 2.08984375 3.195 2.08984375 3.875 C2.74984375 3.875 3.40984375 3.875 4.08984375 3.875 C26.17429668 29.1427975 27.33222122 65.21137218 25.52734375 97.03515625 C23.81463023 122.13711385 17.50892997 146.09597985 -1.21484375 164.08984375 C-16.8491217 177.44305492 -36.66397826 182.25118581 -56.91015625 180.875 C-75.05172267 178.8236568 -89.83669645 172.68699061 -102.91015625 159.875 C-103.53921875 159.28203125 -104.16828125 158.6890625 -104.81640625 158.078125 C-124.2790294 138.08470304 -125.35808403 105.63886958 -125.0625 79.484375 C-124.44796423 50.61643015 -119.95656601 22.83419308 -99.59765625 1 C-72.84871699 -24.30932621 -28.13060951 -20.54100882 0 0 Z M-71.703125 31.953125 C-81.60354857 45.93594544 -81.26547178 63.48447169 -81.22583008 79.94165039 C-81.2226729 82.67309655 -81.24621034 85.40345253 -81.27148438 88.13476562 C-81.32872772 103.88575128 -81.05661492 120.96714486 -70.59765625 133.6875 C-61.29382454 141.26038628 -53.95440023 142.8411866 -41.91015625 141.875 C-38.59271398 140.96293966 -35.83514527 139.67016493 -32.91015625 137.875 C-32.02328125 137.33875 -31.13640625 136.8025 -30.22265625 136.25 C-15.80637991 121.44409457 -16.57189804 97.38310502 -16.7578125 78.02734375 C-17.46184547 50.51840319 -17.46184547 50.51840319 -31.09765625 27.5625 C-43.20464239 17.88218646 -61.80813612 20.48442329 -71.703125 31.953125 Z " transform="translate(287.91015625,61.125)"/>
<path d="M0 0 C20.79217078 -0.48827016 40.70806128 3.8133842 56.4921875 18.15625 C65.49046368 27.42858536 70.74793148 38.62278222 73.4921875 51.15625 C73.7190625 52.1875 73.9459375 53.21875 74.1796875 54.28125 C75.32729239 64.83921498 75.32729239 64.83921498 73.47558594 67.75952148 C70.37644273 69.94196834 67.08500839 69.58379683 63.4296875 69.5546875 C62.64198975 69.55755768 61.85429199 69.56042786 61.04272461 69.56338501 C59.37841065 69.56542522 57.71407269 69.55989832 56.04980469 69.54736328 C53.50140803 69.53130809 50.95459729 69.54721244 48.40625 69.56640625 C46.789059 69.56442381 45.17186898 69.56058011 43.5546875 69.5546875 C42.79212646 69.56076019 42.02956543 69.56683289 41.24389648 69.5730896 C35.99621198 69.50327809 35.99621198 69.50327809 33.53662109 67.80981445 C31.96655702 65.32406317 31.63712436 62.84866 31.1171875 59.96875 C29.61932383 53.13332135 28.19132243 47.58780657 22.12109375 43.59765625 C13.48486626 39.06780736 5.32648348 37.73022436 -4.0703125 40.65625 C-10.76089247 43.31580187 -14.361971 47.18846761 -17.75 53.453125 C-27.6373177 76.69193011 -25.99244034 115.94788849 -17.69140625 139.421875 C-14.10259337 147.71286186 -9.99239122 152.70071248 -1.5078125 156.15625 C5.91933267 158.55914991 14.98111306 158.33802098 22.0546875 155.09375 C28.67005342 151.22213421 31.67128072 145.97642449 33.8671875 138.77734375 C35.09454242 133.63012404 35.80346278 128.39866052 36.4921875 123.15625 C35.23664063 123.24003906 33.98109375 123.32382813 32.6875 123.41015625 C15.21139619 124.50404834 15.21139619 124.50404834 7.4921875 123.15625 C2.83426091 118.49832341 4.30817108 110.86029298 4.3046875 104.71875 C4.29244141 103.58630859 4.28019531 102.45386719 4.26757812 101.28710938 C4.26564453 100.19333984 4.26371094 99.09957031 4.26171875 97.97265625 C4.25760986 96.97693604 4.25350098 95.98121582 4.24926758 94.95532227 C4.50512278 92.00720174 5.25834023 89.83085923 6.4921875 87.15625 C13.15302027 86.30273369 19.65940249 85.99608969 26.37109375 85.98828125 C27.38259995 85.98495285 28.39410614 85.98162445 29.43626404 85.97819519 C31.56159006 85.97316157 33.68692389 85.97078575 35.81225586 85.97094727 C39.04879784 85.96875399 42.28500221 85.95054158 45.52148438 85.93164062 C47.59635301 85.92870723 49.67122325 85.92672207 51.74609375 85.92578125 C52.7046376 85.91859573 53.66318146 85.91141022 54.65077209 85.90400696 C60.27072689 85.92297997 65.13436856 86.39862082 70.4921875 88.15625 C77.84311491 95.69566273 76.74072974 105.9636516 76.640625 115.9140625 C75.97459767 139.02848625 72.49068139 162.6159067 55.8671875 179.94140625 C42.25498549 192.63568017 24.72511129 197.5882612 6.40625 197.3046875 C-13.5878317 196.28622221 -32.24388618 191.14700059 -46.5078125 176.15625 C-63.0195726 156.05947309 -65.823574 129.24499516 -66.5078125 104.15625 C-66.54068359 103.1353125 -66.54068359 103.1353125 -66.57421875 102.09375 C-67.43578209 72.22622095 -64.55257741 39.14303634 -43.2578125 16.34375 C-31.21050028 4.97602975 -16.18680232 0.72101569 0 0 Z " transform="translate(70.5078125,44.84375)"/>
<path d="M0 0 C1.35510178 -0.00262848 1.35510178 -0.00262848 2.73757935 -0.00531006 C5.70804801 -0.00969184 8.67845656 -0.00680304 11.64892578 -0.00341797 C13.7248638 -0.00409218 15.80080175 -0.00506319 17.8767395 -0.00631714 C22.2225215 -0.00778924 26.5682829 -0.00565566 30.9140625 -0.00097656 C36.46756065 0.00471329 42.02101039 0.00144332 47.57450676 -0.00454903 C51.86060954 -0.00817387 56.14670097 -0.00700709 60.43280411 -0.00442123 C62.47960542 -0.00375692 64.52640777 -0.00456298 66.57320786 -0.00690079 C69.44206189 -0.00945816 72.31083914 -0.00554318 75.1796875 0 C76.01530212 -0.00202423 76.85091675 -0.00404846 77.71185303 -0.00613403 C81.71563248 0.00809964 85.69853193 0.132507 89.69046021 0.44998169 C90.41649004 0.50682192 91.14251987 0.56366215 91.89055061 0.62222481 C93.71923828 1.12939453 93.71923828 1.12939453 95.71923828 4.12939453 C95.97802734 7.35986328 95.97802734 7.35986328 95.98486328 11.31689453 C95.98677673 12.01580811 95.98869019 12.71472168 95.99066162 13.43481445 C95.99202111 14.91081096 95.9883411 16.38681952 95.97998047 17.86279297 C95.9692771 20.12120437 95.97988318 22.37882035 95.99267578 24.63720703 C95.99135414 26.07210462 95.98879166 27.50700171 95.98486328 28.94189453 C95.98260742 30.24771484 95.98035156 31.55353516 95.97802734 32.89892578 C95.71923828 36.12939453 95.71923828 36.12939453 93.71923828 39.12939453 C90.85922241 39.52812195 90.85922241 39.52812195 87.15820312 39.56176758 C86.4849147 39.57195923 85.81162628 39.58215088 85.11793518 39.59265137 C82.88859859 39.62288788 80.65969085 39.63206302 78.43017578 39.64111328 C76.88602254 39.65795217 75.34188308 39.67610134 73.79776001 39.69551086 C69.73059391 39.74310326 65.66348363 39.77285252 61.59613037 39.7989502 C56.71764425 39.83394019 51.83937264 39.89097894 46.96105957 39.94434357 C39.54714585 40.02296585 32.13351497 40.07348865 24.71923828 40.12939453 C24.38923828 52.00939453 24.05923828 63.88939453 23.71923828 76.12939453 C28.02728516 76.10619141 32.33533203 76.08298828 36.77392578 76.05908203 C40.20371891 76.04622486 43.63350525 76.03537758 47.06330872 76.02589417 C50.68678605 76.01532211 54.31017021 76.00118883 57.93359375 75.97851562 C61.42192639 75.95682373 64.91016852 75.94483368 68.39856339 75.93964005 C70.38063799 75.93413284 72.36267607 75.91851419 74.34469604 75.90280151 C75.5457901 75.90265045 76.74688416 75.90249939 77.984375 75.90234375 C79.04582733 75.89790253 80.10727966 75.8934613 81.20089722 75.8888855 C83.71923828 76.12939453 83.71923828 76.12939453 85.71923828 78.12939453 C87.70259928 83.72914702 86.94566168 90.21695011 86.96923828 96.06689453 C86.98986328 97.34242188 87.01048828 98.61794922 87.03173828 99.93212891 C87.03947266 101.77581055 87.03947266 101.77581055 87.04736328 103.65673828 C87.05670898 104.77814209 87.06605469 105.8995459 87.07568359 107.05493164 C86.66310982 110.61352177 85.92950712 112.31947553 83.71923828 115.12939453 C81.0806427 115.73066711 81.0806427 115.73066711 77.87084961 115.69702148 C76.66983109 115.69664383 75.46881256 115.69626617 74.23139954 115.69587708 C72.93445663 115.67007065 71.63751373 115.64426422 70.30126953 115.61767578 C68.9603558 115.60834849 67.61942502 115.60123197 66.27848816 115.59623718 C62.7516869 115.57715984 59.22591778 115.52805555 55.69952393 115.47271729 C52.1001202 115.42153901 48.50054446 115.39845232 44.90087891 115.37353516 C37.83942094 115.32258669 30.78079587 115.22473509 23.71923828 115.12939453 C23.71923828 127.00939453 23.71923828 138.88939453 23.71923828 151.12939453 C28.74916016 151.16677734 33.77908203 151.20416016 38.96142578 151.24267578 C42.14245007 151.27294148 45.32341744 151.30407998 48.50439453 151.33837891 C53.55661208 151.39277086 58.60871703 151.44387746 63.66113281 151.47583008 C67.73320597 151.50178459 71.80490253 151.54213014 75.87674332 151.5925808 C77.43246919 151.60930295 78.98826028 151.62078382 80.54406357 151.62700844 C82.71858219 151.63659205 84.89212566 151.6645791 87.06640625 151.69702148 C88.92505814 151.71367607 88.92505814 151.71367607 90.82125854 151.73066711 C92.25575851 151.92803719 92.25575851 151.92803719 93.71923828 152.12939453 C96.18381303 155.82625666 95.96403617 157.69038791 95.94970703 162.09814453 C95.94924881 162.77486206 95.94879059 163.45157959 95.94831848 164.14880371 C95.94530121 165.57773597 95.93743054 167.00666508 95.92504883 168.43554688 C95.90680521 170.62137522 95.90453916 172.80677927 95.90478516 174.99267578 C95.86694604 185.68627125 95.86694604 185.68627125 94.71923828 189.12939453 C58.08923828 189.12939453 21.45923828 189.12939453 -16.28076172 189.12939453 C-18.46031355 184.77029086 -18.53198108 182.64668284 -18.534729 177.84179688 C-18.53784899 177.10616201 -18.54096897 176.37052715 -18.54418349 175.61260033 C-18.552163 173.14676281 -18.54584008 170.6811714 -18.53955078 168.21533203 C-18.54226066 166.44785416 -18.54582158 164.68037743 -18.5501709 162.91290283 C-18.55929747 158.11134325 -18.55574953 153.30986951 -18.54941273 148.50830841 C-18.54435414 143.48665635 -18.54904379 138.46501172 -18.55218506 133.44335938 C-18.55582511 125.00991494 -18.55102457 116.57650552 -18.54150391 108.14306641 C-18.53061929 98.38869864 -18.53414484 88.63441449 -18.54515672 78.88004875 C-18.55422847 70.50969158 -18.55551542 62.1393596 -18.55027938 53.7689991 C-18.54715906 48.76775873 -18.54675203 43.76655768 -18.55335236 38.76531982 C-18.55912354 34.06381053 -18.55513306 29.36240918 -18.54356384 24.66091156 C-18.54091605 22.93392872 -18.54168439 21.20693683 -18.54608917 19.47995758 C-18.55154134 17.12551253 -18.5447146 14.771415 -18.534729 12.41699219 C-18.53397495 11.09849274 -18.5332209 9.77999329 -18.532444 8.42153931 C-18.29782322 5.35256853 -18.09767777 3.59059353 -16.28076172 1.12939453 C-10.94673867 -0.17025804 -5.46466325 -0.01317402 0 0 Z " transform="translate(189.28076171875,270.87060546875)"/>
<path d="M0 0 C1.13614494 -0.0049926 1.13614494 -0.0049926 2.29524231 -0.01008606 C3.90165601 -0.01515426 5.50808026 -0.01749442 7.11450195 -0.01733398 C9.55503115 -0.01950721 11.9950985 -0.03762671 14.43554688 -0.05664062 C15.99869638 -0.05957735 17.56184802 -0.06156028 19.125 -0.0625 C20.20976875 -0.07327827 20.20976875 -0.07327827 21.31645203 -0.08427429 C26.03619653 -0.06334302 30.08415017 0.19056735 34.39453125 2.16796875 C36.42177029 4.68946109 37.67179282 7.46075233 38.98828125 10.40234375 C39.38349976 11.23195618 39.77871826 12.0615686 40.18591309 12.9163208 C41.44549222 15.57325525 42.670465 18.24451543 43.89453125 20.91796875 C44.71645551 22.67034886 45.5406537 24.42166432 46.3671875 26.171875 C47.97103915 29.57286545 49.5634767 32.97884182 51.1484375 36.38867188 C54.10212658 42.71337771 57.22651653 48.94822044 60.39453125 55.16796875 C60.66126648 54.62197021 60.92800171 54.07597168 61.20281982 53.51342773 C63.99284488 47.80251869 66.7833857 42.09186189 69.57421875 36.38134766 C70.61406318 34.25348193 71.65377851 32.1255531 72.69335938 29.99755859 C74.19236407 26.92919362 75.69184132 23.86105996 77.19140625 20.79296875 C77.65198425 19.84993896 78.11256226 18.90690918 78.58709717 17.93530273 C79.85352316 15.34484641 81.1230371 12.75594067 82.39453125 10.16796875 C82.97732849 8.9783252 82.97732849 8.9783252 83.57189941 7.76464844 C86.27718179 2.28531821 86.27718179 2.28531821 87.39453125 1.16796875 C97.43829914 -0.32861918 107.66205966 0.19918769 117.76953125 0.54296875 C119.08405273 0.58599121 120.39857422 0.62901367 121.75292969 0.67333984 C131.2649838 1.0384213 131.2649838 1.0384213 132.39453125 2.16796875 C132.2593051 9.2383647 128.76242467 14.43937829 125.26953125 20.41796875 C123.98622968 22.65972737 122.70370391 24.90193024 121.421875 27.14453125 C121.09032913 27.72089325 120.75878326 28.29725525 120.41719055 28.89108276 C116.81610987 35.15142721 113.32540044 41.47202437 109.83203125 47.79296875 C103.97315746 58.35862628 98.05732857 68.89103069 92.1015625 79.40234375 C91.64217285 80.22412109 91.1827832 81.04589844 90.70947266 81.89257812 C89.87500476 83.33655154 89.00070678 84.75877835 88.07568359 86.14648438 C86.73115319 88.10903104 86.73115319 88.10903104 85.39453125 91.16796875 C86.44968878 95.3000813 88.17214323 98.89475698 90.1953125 102.6328125 C90.753396 103.66776855 91.31147949 104.70272461 91.88647461 105.76904297 C92.4872583 106.87006348 93.08804199 107.97108398 93.70703125 109.10546875 C94.33295166 110.26062988 94.95887207 111.41579102 95.60375977 112.60595703 C100.10674486 120.89853656 104.73761049 129.11601475 109.41162109 137.31323242 C115.72538494 148.43086365 121.72545718 159.71803017 127.69873047 171.02148438 C128.83571475 173.13110911 130.00462401 175.22381619 131.20361328 177.29882812 C132.04255127 178.75772461 132.04255127 178.75772461 132.8984375 180.24609375 C133.40318604 181.10106445 133.90793457 181.95603516 134.42797852 182.83691406 C135.39453125 185.16796875 135.39453125 185.16796875 134.39453125 189.16796875 C119.21453125 189.16796875 104.03453125 189.16796875 88.39453125 189.16796875 C85.25953125 182.91859375 82.12453125 176.66921875 78.89453125 170.23046875 C77.92322266 168.29695557 76.95191406 166.36344238 75.95117188 164.37133789 C70.60586072 153.7089874 65.41152158 142.98873697 60.39453125 132.16796875 C58.58096366 134.88832013 57.14602963 137.54463788 55.68896484 140.46557617 C55.1485556 141.54647018 54.60814636 142.6273642 54.05136108 143.74101257 C53.47109161 144.9067128 52.89082214 146.07241302 52.29296875 147.2734375 C51.69065523 148.47993036 51.08816457 149.6863348 50.48550415 150.89265442 C48.90224139 154.06299224 47.32138511 157.2345241 45.74102783 160.40631104 C44.12698135 163.6446458 42.51068258 166.88185595 40.89453125 170.11914062 C37.72542432 176.46753799 34.5600841 182.81779345 31.39453125 189.16796875 C16.21453125 189.16796875 1.03453125 189.16796875 -14.60546875 189.16796875 C-13.77149005 183.33011784 -13.36916906 181.10071629 -10.6484375 176.3515625 C-10.03685791 175.26955566 -9.42527832 174.18754883 -8.79516602 173.07275391 C-8.12781082 171.91696685 -7.4604106 170.76120578 -6.79296875 169.60546875 C-6.10411944 168.39313493 -5.41655468 167.18007039 -4.73022461 165.96630859 C-3.34375548 163.5152608 -1.95306023 161.06669102 -0.55957031 158.61962891 C2.12706186 153.87405099 4.73566572 149.08834299 7.33203125 144.29296875 C12.13172023 135.46180593 16.97474572 126.655034 21.83203125 117.85546875 C22.34417679 116.92749481 22.34417679 116.92749481 22.8666687 115.98077393 C23.53239728 114.77467014 24.19850072 113.56877317 24.86500549 112.36309814 C25.80444776 110.6601088 26.73799548 108.95387196 27.67138672 107.24755859 C28.74486805 105.32904152 29.85305738 103.42903998 31.01220703 101.56103516 C33.13544364 98.09934763 34.35625426 95.9020363 34.5703125 91.796875 C32.86412757 86.53094212 30.2978789 81.91450818 27.58203125 77.10546875 C26.38540916 74.94401457 25.18879473 72.78255615 23.9921875 70.62109375 C23.38648926 69.53634766 22.78079102 68.45160156 22.15673828 67.33398438 C20.06105187 63.56883316 18.00382514 59.78382172 15.95068359 55.99536133 C12.1696529 49.02090127 8.3473499 42.07002565 4.484375 35.140625 C4.14998413 34.54046066 3.81559326 33.94029633 3.47106934 33.32194519 C1.8363375 30.38881355 0.1988487 27.45730765 -1.44287109 24.52807617 C-3.18001235 21.41669121 -4.89555345 18.2943789 -6.60546875 15.16796875 C-7.14059082 14.21857422 -7.67571289 13.26917969 -8.22705078 12.29101562 C-8.70384277 11.40994141 -9.18063477 10.52886719 -9.671875 9.62109375 C-10.0954126 8.85442383 -10.5189502 8.08775391 -10.95532227 7.29785156 C-11.60546875 5.16796875 -11.60546875 5.16796875 -10.85131836 2.95214844 C-8.19023932 -0.85877957 -4.21469098 0.00639602 0 0 Z " transform="translate(315.60546875,270.83203125)"/>
<path d="M0 0 C5.05704719 0.00575096 10.1140419 0.00236798 15.17108727 -0.00357246 C19.12275583 -0.00720342 23.07441213 -0.00602881 27.02608109 -0.00344467 C28.89094677 -0.00278523 30.75581363 -0.00356875 32.62067795 -0.00592422 C54.31220548 -0.02736753 54.31220548 -0.02736753 62.65234375 1.13037109 C64.28910961 2.76713696 63.87688262 4.6847506 63.96875 6.94287109 C64.0315918 8.43367188 64.0315918 8.43367188 64.09570312 9.95458984 C64.13501953 11.00259766 64.17433594 12.05060547 64.21484375 13.13037109 C64.25802734 14.14744141 64.30121094 15.16451172 64.34570312 16.21240234 C64.46589464 19.18475761 64.56360687 22.15692513 64.65234375 25.13037109 C64.68440918 25.98244141 64.71647461 26.83451172 64.74951172 27.71240234 C64.76771973 28.48970703 64.78592773 29.26701172 64.8046875 30.06787109 C64.83357056 31.07140625 64.83357056 31.07140625 64.86303711 32.09521484 C64.65234375 34.13037109 64.65234375 34.13037109 62.65234375 39.13037109 C48.13234375 39.46037109 33.61234375 39.79037109 18.65234375 40.13037109 C19.14734375 44.09037109 19.14734375 44.09037109 19.65234375 48.13037109 C19.74018666 50.89579715 19.7894839 53.63486536 19.78173828 56.39916992 C19.78346511 57.18739136 19.78519194 57.97561279 19.78697109 58.78771973 C19.79129378 61.38763555 19.7883826 63.98748576 19.78515625 66.58740234 C19.78621441 68.43454509 19.78759977 70.28168768 19.78929138 72.12882996 C19.79208412 77.05232967 19.78773055 81.97579679 19.78111649 86.89929199 C19.77734799 89.93945353 19.77528052 92.97961201 19.77365112 96.01977539 C19.75841014 120.05916484 19.68564881 144.0949767 19.21484375 168.13037109 C19.19528625 169.18890289 19.17572876 170.24743469 19.15557861 171.33804321 C19.09995073 174.22734864 19.03656405 177.11632886 18.96875 180.00537109 C18.95202744 180.83320602 18.93530487 181.66104095 18.91807556 182.51396179 C18.76933919 188.01337566 18.76933919 188.01337566 17.65234375 189.13037109 C14.69529054 189.21905408 11.76169319 189.24557405 8.8046875 189.22802734 C7.47504723 189.22590492 7.47504723 189.22590492 6.11854553 189.22373962 C3.27561121 189.21812325 0.43275444 189.20556801 -2.41015625 189.19287109 C-4.33268116 189.1878582 -6.25520729 189.18329493 -8.17773438 189.17919922 C-12.90107174 189.1681485 -17.62435083 189.15087292 -22.34765625 189.13037109 C-23.09368011 179.44224466 -23.49032848 169.84754687 -23.46118164 160.12670898 C-23.46132767 158.81754013 -23.46147369 157.50837128 -23.46162415 156.15953064 C-23.4619071 152.62332729 -23.45609288 149.08715896 -23.44905019 145.55096364 C-23.44273178 141.83544554 -23.44220622 138.11992633 -23.44102478 134.40440369 C-23.43793619 127.3925341 -23.42975668 120.38068039 -23.41967529 113.36881775 C-23.40843668 105.37587932 -23.40298432 97.38294007 -23.39797986 89.38999569 C-23.38757155 72.97011158 -23.37002079 56.55024337 -23.34765625 40.13037109 C-24.92848999 40.13822632 -24.92848999 40.13822632 -26.54125977 40.14624023 C-30.47549582 40.16442894 -34.4097282 40.17585354 -38.34399414 40.18530273 C-40.0422427 40.19031136 -41.74048699 40.19712016 -43.4387207 40.20581055 C-45.8888454 40.21802883 -48.33891275 40.22363424 -50.7890625 40.22802734 C-51.54038956 40.23318863 -52.29171661 40.23834991 -53.06581116 40.2436676 C-57.59707118 40.24414281 -61.87649306 39.87513545 -66.34765625 39.13037109 C-68.14765338 35.26180726 -68.60428757 32.19982484 -68.61328125 27.94677734 C-68.61585938 26.77179688 -68.6184375 25.59681641 -68.62109375 24.38623047 C-68.61335938 23.16742188 -68.605625 21.94861328 -68.59765625 20.69287109 C-68.60539062 19.47792969 -68.613125 18.26298828 -68.62109375 17.01123047 C-68.61851562 15.83496094 -68.6159375 14.65869141 -68.61328125 13.44677734 C-68.61102539 12.37886963 -68.60876953 11.31096191 -68.60644531 10.21069336 C-68.32980641 6.91790747 -67.5111043 4.21258413 -66.34765625 1.13037109 C-44.23405317 0.00091597 -22.13634972 -0.02552659 0 0 Z " transform="translate(528.34765625,270.86962890625)"/>
<path d="M0 0 C5.7853688 3.5495385 10.4770493 9.01326137 12.5 15.5 C13.50487789 24.2583041 13.04177094 31.42838807 7.5 38.5 C5.95703125 40.23828125 5.95703125 40.23828125 4.5 41.5 C3.84 41.5 3.18 41.5 2.5 41.5 C2.57822778 42.5106763 2.65645555 43.5213526 2.73705387 44.56265545 C4.63909072 69.14041178 6.53323709 93.71876644 8.4190836 118.2977705 C9.33124288 130.18391187 10.24597682 142.06984467 11.16674805 153.95532227 C11.96916752 164.31317887 12.76678068 174.67139237 13.55859417 185.03006536 C13.97812526 190.51624176 14.40008139 196.00220756 14.82779121 201.48775291 C15.23015357 206.64918579 15.62609557 211.81107083 16.01708603 216.97337723 C16.16183685 218.86944265 16.30894685 220.76532965 16.4585743 222.66101646 C16.66232301 225.24685528 16.85761691 227.83319887 17.05079651 230.41984558 C17.11207357 231.17179819 17.17335064 231.9237508 17.23648459 232.69848984 C17.5096831 236.48274998 17.55189474 239.83533 16.5 243.5 C14.11809282 245.88190718 8.32033592 244.82875172 5.125 244.875 C4.15304687 244.91238281 3.18109375 244.94976562 2.1796875 244.98828125 C1.24640625 244.99988281 0.313125 245.01148438 -0.6484375 245.0234375 C-1.50614746 245.04325684 -2.36385742 245.06307617 -3.24755859 245.08349609 C-5.5 244.5 -5.5 244.5 -7.09339142 242.33308125 C-8.63431466 239.2294739 -9.00864757 237.03064912 -9.25817871 233.58720398 C-9.35052292 232.40125641 -9.44286713 231.21530884 -9.53800964 229.99342346 C-9.6253688 228.69968307 -9.71272797 227.40594269 -9.80273438 226.07299805 C-9.90555979 224.68881996 -10.00953817 223.30472712 -10.11457825 221.92071533 C-10.39695435 218.15683482 -10.66317387 214.39196362 -10.92660713 210.62671638 C-11.20801756 206.64488328 -11.50442851 202.66416649 -11.79919434 198.68330383 C-12.35846235 191.09971667 -12.90445293 183.51523431 -13.44564009 175.93033773 C-14.05062325 167.45941488 -14.66946628 158.98952612 -15.28996086 150.51972747 C-16.29213158 136.83710868 -17.28607446 123.1539096 -18.2734375 109.47021484 C-19.20431377 96.57313948 -20.13629007 83.67615731 -21.09489441 70.78110695 C-21.21658335 69.14106496 -21.33755653 67.50096966 -21.4577179 65.86081505 C-21.26082172 53.46473771 -21.26082172 53.46473771 -25.171875 42.7578125 C-25.85765625 42.38398437 -26.5434375 42.01015625 -27.25 41.625 C-32.33655029 38.22176851 -34.71078695 34.32725351 -36.5 28.5 C-37.83865085 20.18280863 -36.38144105 13.3756137 -31.5 6.5 C-23.69696137 -2.06734538 -10.80233132 -4.79632 0 0 Z " transform="translate(378.5,1.5)"/>
</svg>
